# xmcd
# 
# Track frame offsets:
#     150
#     18022
#     33042
#     45275
#     60697
#     80267
#     95120
#     110637
#     118292
#     135652
#     147432
# 
# Disc length: 2113
# 
# Revision: 4
# Processed by: cddbd v1.5.2PL0 Copyright (c) Steve Scherf et al.
# Submitted via: BonkEnc v1.0
# 
DISCID=8e083f0b
DTITLE=Geoff muldaur and Amos garrett - Geoff&Amos
DYEAR=1978
DGENRE=Blues
TTITLE0=My Tears Came Rolling Down
TTITLE1=River's Invitation
TTITLE2=Prelude In Em, No.4, Opus 28
TTITLE3=Sloppy Drunk
TTITLE4=La Juanda
TTITLE5=Carolina Sunshine Girl
TTITLE6=Washboard Blues
TTITLE7=Dance Of The Sugar Plum Fairy
TTITLE8=Chicken Stew Part 1
TTITLE9=Dance Of The Coloured Elves
TTITLE10=Beatiful Isle Of Somewhere
EXTD=YEAR: 1978 ID3G: 0
EXTT0=
EXTT1=
EXTT2=
EXTT3=
EXTT4=
EXTT5=
EXTT6=
EXTT7=
EXTT8=
EXTT9=
EXTT10=
PLAYORDER=
